<?xml version="1.0" standalone="no"?>
<svg xmlns:xlink="http://www.w3.org/1999/xlink" id="wave" style="transform:rotate(0deg); transition: 0.3s" viewBox="0 0 1440 490" version="1.1" xmlns="http://www.w3.org/2000/svg"><defs><linearGradient id="sw-gradient-0" x1="0" x2="0" y1="1" y2="0"><stop stop-color="rgba(0, 191, 255, 1)" offset="0%"/><stop stop-color="rgba(0, 51, 102, 1)" offset="100%"/></linearGradient></defs><path style="transform:translate(0, 0px); opacity:1" fill="url(#sw-gradient-0)" d="M0,343L30,310.3C60,278,120,212,180,187.8C240,163,300,180,360,228.7C420,278,480,359,540,400.2C600,441,660,441,720,441C780,441,840,441,900,375.7C960,310,1020,180,1080,163.3C1140,147,1200,245,1260,236.8C1320,229,1380,114,1440,89.8C1500,65,1560,131,1620,171.5C1680,212,1740,229,1800,196C1860,163,1920,82,1980,81.7C2040,82,2100,163,2160,163.3C2220,163,2280,82,2340,106.2C2400,131,2460,261,2520,261.3C2580,261,2640,131,2700,130.7C2760,131,2820,261,2880,277.7C2940,294,3000,196,3060,138.8C3120,82,3180,65,3240,106.2C3300,147,3360,245,3420,269.5C3480,294,3540,245,3600,228.7C3660,212,3720,229,3780,253.2C3840,278,3900,310,3960,302.2C4020,294,4080,245,4140,187.8C4200,131,4260,65,4290,32.7L4320,0L4320,490L4290,490C4260,490,4200,490,4140,490C4080,490,4020,490,3960,490C3900,490,3840,490,3780,490C3720,490,3660,490,3600,490C3540,490,3480,490,3420,490C3360,490,3300,490,3240,490C3180,490,3120,490,3060,490C3000,490,2940,490,2880,490C2820,490,2760,490,2700,490C2640,490,2580,490,2520,490C2460,490,2400,490,2340,490C2280,490,2220,490,2160,490C2100,490,2040,490,1980,490C1920,490,1860,490,1800,490C1740,490,1680,490,1620,490C1560,490,1500,490,1440,490C1380,490,1320,490,1260,490C1200,490,1140,490,1080,490C1020,490,960,490,900,490C840,490,780,490,720,490C660,490,600,490,540,490C480,490,420,490,360,490C300,490,240,490,180,490C120,490,60,490,30,490L0,490Z"/><defs><linearGradient id="sw-gradient-1" x1="0" x2="0" y1="1" y2="0"><stop stop-color="rgba(72.929, 169.259, 255, 1)" offset="0%"/><stop stop-color="rgba(9.071, 0.396, 107.834, 1)" offset="100%"/></linearGradient></defs><path style="transform:translate(0, 50px); opacity:0.9" fill="url(#sw-gradient-1)" d="M0,441L30,424.7C60,408,120,376,180,367.5C240,359,300,376,360,375.7C420,376,480,359,540,302.2C600,245,660,147,720,155.2C780,163,840,278,900,318.5C960,359,1020,327,1080,318.5C1140,310,1200,327,1260,326.7C1320,327,1380,310,1440,253.2C1500,196,1560,98,1620,73.5C1680,49,1740,98,1800,130.7C1860,163,1920,180,1980,196C2040,212,2100,229,2160,220.5C2220,212,2280,180,2340,212.3C2400,245,2460,343,2520,392C2580,441,2640,441,2700,416.5C2760,392,2820,343,2880,302.2C2940,261,3000,229,3060,204.2C3120,180,3180,163,3240,204.2C3300,245,3360,343,3420,343C3480,343,3540,245,3600,171.5C3660,98,3720,49,3780,65.3C3840,82,3900,163,3960,196C4020,229,4080,212,4140,212.3C4200,212,4260,229,4290,236.8L4320,245L4320,490L4290,490C4260,490,4200,490,4140,490C4080,490,4020,490,3960,490C3900,490,3840,490,3780,490C3720,490,3660,490,3600,490C3540,490,3480,490,3420,490C3360,490,3300,490,3240,490C3180,490,3120,490,3060,490C3000,490,2940,490,2880,490C2820,490,2760,490,2700,490C2640,490,2580,490,2520,490C2460,490,2400,490,2340,490C2280,490,2220,490,2160,490C2100,490,2040,490,1980,490C1920,490,1860,490,1800,490C1740,490,1680,490,1620,490C1560,490,1500,490,1440,490C1380,490,1320,490,1260,490C1200,490,1140,490,1080,490C1020,490,960,490,900,490C840,490,780,490,720,490C660,490,600,490,540,490C480,490,420,490,360,490C300,490,240,490,180,490C120,490,60,490,30,490L0,490Z"/><defs><linearGradient id="sw-gradient-2" x1="0" x2="0" y1="1" y2="0"><stop stop-color="rgba(0, 176.138, 175.541, 1)" offset="0%"/><stop stop-color="rgba(35.223, 87.466, 139.709, 0.76)" offset="100%"/></linearGradient></defs><path style="transform:translate(0, 100px); opacity:0.8" fill="url(#sw-gradient-2)" d="M0,392L30,383.8C60,376,120,359,180,318.5C240,278,300,212,360,187.8C420,163,480,180,540,204.2C600,229,660,261,720,253.2C780,245,840,196,900,220.5C960,245,1020,343,1080,367.5C1140,392,1200,343,1260,277.7C1320,212,1380,131,1440,89.8C1500,49,1560,49,1620,65.3C1680,82,1740,114,1800,114.3C1860,114,1920,82,1980,81.7C2040,82,2100,114,2160,122.5C2220,131,2280,114,2340,122.5C2400,131,2460,163,2520,179.7C2580,196,2640,196,2700,163.3C2760,131,2820,65,2880,32.7C2940,0,3000,0,3060,65.3C3120,131,3180,261,3240,285.8C3300,310,3360,229,3420,212.3C3480,196,3540,245,3600,253.2C3660,261,3720,229,3780,196C3840,163,3900,131,3960,155.2C4020,180,4080,261,4140,310.3C4200,359,4260,376,4290,383.8L4320,392L4320,490L4290,490C4260,490,4200,490,4140,490C4080,490,4020,490,3960,490C3900,490,3840,490,3780,490C3720,490,3660,490,3600,490C3540,490,3480,490,3420,490C3360,490,3300,490,3240,490C3180,490,3120,490,3060,490C3000,490,2940,490,2880,490C2820,490,2760,490,2700,490C2640,490,2580,490,2520,490C2460,490,2400,490,2340,490C2280,490,2220,490,2160,490C2100,490,2040,490,1980,490C1920,490,1860,490,1800,490C1740,490,1680,490,1620,490C1560,490,1500,490,1440,490C1380,490,1320,490,1260,490C1200,490,1140,490,1080,490C1020,490,960,490,900,490C840,490,780,490,720,490C660,490,600,490,540,490C480,490,420,490,360,490C300,490,240,490,180,490C120,490,60,490,30,490L0,490Z"/></svg>